<svg height="496pt" viewBox="0 0 496 496" width="496pt" xmlns="http://www.w3.org/2000/svg"><path d="m304 456h-280c-8.839844 0-16-7.167969-16-16v-288c0-8.832031 7.160156-16 16-16h256c8.832031 0 16 7.167969 16 16v304zm0 0" fill="#e6e9ed"/><path d="m104 256v72c0 8.832031 7.167969 16 16 16s16-7.167969 16-16v-72zm0 0" fill="#fcd770"/><path d="m104 296h9.238281c7.714844 0 15.320313.832031 22.761719 2.375v-42.375h-32zm0 0" fill="#ffc729"/><path d="m112 216c-5.359375 2.585938-24 9.65625-24 16v32c0 8.832031 7.167969 16 16 16h9.238281c25.273438 0 49.976563 7.480469 71.007813 21.503906l15.753906 10.496094h32v-120zm0 0" fill="#fcd770"/><path d="m232 216h-8v64h8c17.671875 0 32-14.328125 32-32s-14.328125-32-32-32zm0 0" fill="#fcd770"/><path d="m120 216h-8c-16 0-24 9.65625-24 16v32c0 8.832031 7.167969 16 16 16h16zm0 0" fill="#fc6e51"/><path d="m200 192h32v120h-32zm0 0" fill="#fc6e51"/><path d="m264 120c0 61.855469-50.144531 112-112 112s-112-50.144531-112-112 50.144531-112 112-112 112 50.144531 112 112zm0 0" fill="#69d6f4"/><path d="m296 456h176c8.832031 0 16-7.167969 16-16v-96.9375c0-13.773438-8.816406-26-21.878906-30.359375l-26.121094-8.703125-16.703125-50.121094c-4.359375-13.0625-16.585937-21.878906-30.359375-21.878906h-96.9375zm0 0" fill="#ff826e"/><path d="m434.609375 408h-426.609375v32c0 8.832031 7.160156 16 16 16h448c8.832031 0 16-7.167969 16-16v-32zm0 0" fill="#fcd770"/><path d="m393.824219 269.472656c-1.089844-3.273437-4.144531-5.472656-7.59375-5.472656h-58.230469v56h80v-6.703125c0-.855469-.144531-1.710937-.414062-2.527344zm0 0" fill="#4fc1e9"/><path d="m440 432c0 30.929688-25.070312 56-56 56s-56-25.070312-56-56 25.070312-56 56-56 56 25.070312 56 56zm0 0" fill="#656d78"/><path d="m384 456c-13.238281 0-24-10.761719-24-24s10.761719-24 24-24 24 10.761719 24 24-10.761719 24-24 24zm0 0" fill="#aab2bd"/><path d="m168 432c0 30.929688-25.070312 56-56 56s-56-25.070312-56-56 25.070312-56 56-56 56 25.070312 56 56zm0 0" fill="#656d78"/><path d="m112 456c-13.238281 0-24-10.761719-24-24s10.761719-24 24-24 24 10.761719 24 24-10.761719 24-24 24zm0 0" fill="#aab2bd"/><g fill="#b4dd7f"><path d="m40 120c0 14.175781 2.742188 27.695312 7.542969 40.175781l27.167969-10.863281c8.023437-3.207031 13.28125-10.976562 13.28125-19.609375v-9.207031c0-9.695313 6.59375-18.144532 16-20.496094s16-10.800781 16-20.488281v-2.457031c0-8 4.519531-15.3125 11.679687-18.886719l8.640625-4.328125c7.167969-3.582032 11.6875-10.894532 11.6875-18.894532v-26.945312c-61.855469 0-112 50.144531-112 112zm0 0"/><path d="m152 232c50.199219 0 92.6875-33.03125 106.910156-78.542969l-2.910156-1.457031h-16c-8.832031 0-16-7.167969-16-16v-16c0-8.832031-7.167969-16-16-16s-16 7.167969-16 16-7.167969 16-16 16h-16c-8.832031 0-16 7.167969-16 16s-7.167969 16-16 16h-14.9375c-5.621094 0-10.832031 2.945312-13.726562 7.769531l-18.457032 30.757813c19.34375 15.914062 44.113282 25.472656 71.121094 25.472656zm0 0"/><path d="m184 12.703125v24.871094c0 11.503906 5.753906 22.257812 15.328125 28.640625 5.65625 3.777344 12.296875 5.785156 19.097656 5.785156h34.652344c-13.511719-28.382812-38.511719-50.191406-69.078125-59.296875zm0 0"/></g><path d="m384 400c-17.648438 0-32 14.351562-32 32s14.351562 32 32 32 32-14.351562 32-32-14.351562-32-32-32zm0 48c-8.824219 0-16-7.175781-16-16s7.175781-16 16-16 16 7.175781 16 16-7.175781 16-16 16zm0 0"/><path d="m112 400c-17.648438 0-32 14.351562-32 32s14.351562 32 32 32 32-14.351562 32-32-14.351562-32-32-32zm0 48c-8.824219 0-16-7.175781-16-16s7.175781-16 16-16 16 7.175781 16 16-7.175781 16-16 16zm0 0"/><path d="m468.648438 305.113281-22.320313-7.441406-15.441406-46.328125c-5.453125-16.351562-20.710938-27.34375-37.949219-27.34375h-88.9375v-72c0-13.230469-10.769531-24-24-24h-8.40625c.175781-2.65625.40625-5.296875.40625-8 0-66.167969-53.832031-120-120-120s-120 53.832031-120 120c0 2.703125.230469 5.34375.40625 8h-8.40625c-13.230469 0-24 10.769531-24 24v288c0 13.230469 10.769531 24 24 24h32.65625c11.085938 19.097656 31.710938 32 55.34375 32s44.257812-12.902344 55.34375-32h161.320312c11.089844 19.097656 31.710938 32 55.34375 32 23.632813 0 44.257813-12.902344 55.34375-32h32.648438c13.230469 0 24-10.769531 24-24v-96.9375c0-17.238281-10.992188-32.496094-27.351562-37.949219zm-75.710938-65.113281c10.34375 0 19.496094 6.601562 22.765625 16.414062l17.96875 53.914063 29.914063 9.96875c9.8125 3.269531 16.414062 12.421875 16.414062 22.765625v56.9375h-40.65625c-5.617188-9.671875-13.671875-17.726562-23.34375-23.34375v-63.359375c0-1.710937-.28125-3.417969-.824219-5.066406l-13.769531-41.285157c-2.175781-6.546874-8.269531-10.945312-15.175781-10.945312h-66.230469v144h-16v-160zm-56.9375 80h64v50.105469c-5.128906-1.328125-10.464844-2.105469-16-2.105469-19.121094 0-36.265625 8.472656-48 21.808594zm0-16v-32h50.230469l10.671875 32zm-80-184c0 8.273438-1.070312 16.28125-2.902344 24h-13.097656c-4.40625 0-8-3.59375-8-8v-16c0-13.230469-10.769531-24-24-24s-24 10.769531-24 24c0 4.40625-3.59375 8-8 8h-16c-13.230469 0-24 10.769531-24 24 0 4.40625-3.59375 8-8 8h-14.9375c-8.390625 0-16.277344 4.464844-20.582031 11.65625l-13.417969 22.367188c-8.589844-8.472657-15.636719-18.457032-20.894531-29.472657l19.527343-7.816406c11.121094-4.445313 18.304688-15.0625 18.304688-27.03125v-9.207031c0-6.03125 4.089844-11.273438 9.945312-12.726563 12.984376-3.257812 22.054688-14.875 22.054688-28.265625v-2.457031c0-5 2.785156-9.496094 7.265625-11.734375l8.636719-4.328125c9.929687-4.960937 16.097656-14.9375 16.097656-26.039063v-18.539062c5.464844.417969 10.800781 1.265625 16 2.503906v18.675782c0 14.214843 7.0625 27.414062 18.886719 35.292968 6.984375 4.65625 15.128906 7.121094 23.539062 7.121094h29.550781c5.152344 12.320312 8.023438 25.832031 8.023438 40zm-144 113v39h-8c-4.40625 0-8-3.59375-8-8v-32c0-1.910156.71875-3.640625 1.878906-5.039062 4.546875 2.3125 9.265625 4.3125 14.121094 6.039062zm0 55h1.238281c4.960938 0 9.882813.375 14.761719.976562v39.023438c0 4.40625-3.59375 8-8 8s-8-3.59375-8-8zm16-15.113281v-35.300781c7.761719 1.574218 15.785156 2.414062 24 2.414062 14.039062 0 27.464844-2.550781 40-7v64.054688l-3.3125-2.207032c-18.289062-12.199218-39.039062-19.609375-60.6875-21.960937zm80-46.839844c5.632812-2.984375 10.945312-6.460937 16-10.277344v88.230469h-16zm32-.574219c9.289062 3.3125 16 12.113282 16 22.527344s-6.710938 19.214844-16 22.527344zm-88-1.472656c-22.585938 0-43.449219-7.3125-60.519531-19.59375l14.710937-24.527344c1.441406-2.390625 4.074219-3.878906 6.871094-3.878906h14.9375c13.230469 0 24-10.769531 24-24 0-4.40625 3.59375-8 8-8h16c13.230469 0 24-10.769531 24-24 0-4.40625 3.59375-8 8-8s8 3.59375 8 8v16c0 13.230469 10.769531 24 24 24h7.976562c-15.703124 37.542969-52.800781 64-95.976562 64zm87.496094-160h-21.070313c-5.242187 0-10.304687-1.535156-14.65625-4.441406-7.371093-4.902344-11.769531-13.125-11.769531-21.984375v-13.550781c19.609375 8.199218 36.128906 22.28125 47.496094 39.976562zm-95.496094-47.59375v18.546875c0 5-2.785156 9.496094-7.265625 11.734375l-8.636719 4.328125c-9.929687 4.960937-16.097656 14.9375-16.097656 26.039063v2.457031c0 6.03125-4.089844 11.273437-9.945312 12.726562-12.984376 3.25-22.054688 14.867188-22.054688 28.257813v9.207031c0 5.394531-3.238281 10.175781-8.257812 12.175781l-19.382813 7.753906c-2.800781-9.402343-4.359375-19.328124-4.359375-29.632812 0-54.648438 42.390625-99.488281 96-103.59375zm-120 127.59375h10.414062c6.296876 30.894531 24.523438 57.472656 49.617188 74.792969-2.558594 3.863281-4.03125 8.429687-4.03125 13.207031v32c0 10.414062 6.710938 19.214844 16 22.527344v41.472656c0 13.230469 10.769531 24 24 24s24-10.769531 24-24v-35.929688c12.65625 3.355469 24.753906 8.707032 35.816406 16.082032l17.757813 11.847656h42.425781v-32.808594c18.230469-3.71875 32-19.871094 32-39.191406s-13.769531-35.472656-32-39.191406v-7.503906c14.609375-15.800782 25.121094-35.441407 29.585938-57.304688h10.414062c4.40625 0 8 3.59375 8 8v248h-120.65625c-11.085938-19.097656-31.710938-32-55.34375-32s-44.257812 12.902344-55.34375 32h-40.65625v-248c0-4.40625 3.59375-8 8-8zm0 304c-4.40625 0-8-3.59375-8-8v-24h34.105469c-1.328125 5.128906-2.105469 10.464844-2.105469 16s.777344 10.871094 2.105469 16zm88 32c-26.472656 0-48-21.527344-48-48s21.527344-48 48-48 48 21.527344 48 48-21.527344 48-48 48zm61.894531-32c1.328125-5.128906 2.105469-10.464844 2.105469-16s-.777344-10.871094-2.105469-16h148.21875c-1.335937 5.128906-2.113281 10.464844-2.113281 16s.777344 10.871094 2.105469 16zm210.105469 32c-26.472656 0-48-21.527344-48-48s21.527344-48 48-48 48 21.527344 48 48-21.527344 48-48 48zm88-32h-26.105469c1.328125-5.128906 2.105469-10.464844 2.105469-16s-.777344-10.871094-2.105469-16h34.105469v24c0 4.40625-3.59375 8-8 8zm0 0"/></svg>